<svg class="main-svg" xmlns="http://www.w3.org/2000/svg" xmlns:xlink="http://www.w3.org/1999/xlink" width="400" height="300" style="" viewBox="0 0 400 300"><rect x="0" y="0" width="400" height="300" style="fill: rgb(255, 255, 255); fill-opacity: 1;"/><defs id="defs-ad2c81"><g class="clips"><clipPath id="clipad2c81xyplot" class="plotclip"><rect width="272" height="210"/></clipPath><clipPath class="axesclip" id="clipad2c81x"><rect x="50" y="0" width="272" height="300"/></clipPath><clipPath class="axesclip" id="clipad2c81y"><rect x="0" y="40" width="400" height="210"/></clipPath><clipPath class="axesclip" id="clipad2c81xy"><rect x="50" y="40" width="272" height="210"/></clipPath></g><g class="gradients"/><g class="patterns"/></defs><g class="bglayer"/><g class="layer-below"><g class="imagelayer"/><g class="shapelayer"/></g><g class="cartesianlayer"><g class="subplot xy"><g class="layer-subplot"><g class="shapelayer"/><g class="imagelayer"/></g><g class="minor-gridlayer"><g class="x"/><g class="y"/></g><g class="gridlayer"><g class="x"><path class="xgrid crisp" transform="translate(186,0)" d="M0,40v210" style="stroke: rgb(222, 222, 222); stroke-opacity: 1; stroke-width: 2px;"/><path class="xgrid crisp" transform="translate(304.65,0)" d="M0,40v210" style="stroke: rgb(222, 222, 222); stroke-opacity: 1; stroke-width: 2px;"/></g><g class="y"><path class="ygrid crisp" transform="translate(0,199.45)" d="M50,0h272" style="stroke: rgb(222, 222, 222); stroke-opacity: 1; stroke-width: 2px;"/><path class="ygrid crisp" transform="translate(0,163.15)" d="M50,0h272" style="stroke: rgb(222, 222, 222); stroke-opacity: 1; stroke-width: 2px;"/><path class="ygrid crisp" transform="translate(0,126.85)" d="M50,0h272" style="stroke: rgb(222, 222, 222); stroke-opacity: 1; stroke-width: 2px;"/><path class="ygrid crisp" transform="translate(0,90.55)" d="M50,0h272" style="stroke: rgb(222, 222, 222); stroke-opacity: 1; stroke-width: 2px;"/><path class="ygrid crisp" transform="translate(0,54.25)" d="M50,0h272" style="stroke: rgb(222, 222, 222); stroke-opacity: 1; stroke-width: 2px;"/></g></g><g class="zerolinelayer"><path class="xzl zl crisp" transform="translate(67.35,0)" d="M0,40v210" style="stroke: rgb(179, 179, 179); stroke-opacity: 1; stroke-width: 2px;"/><path class="yzl zl crisp" transform="translate(0,235.75)" d="M50,0h272" style="stroke: rgb(179, 179, 179); stroke-opacity: 1; stroke-width: 1px;"/></g><path class="xlines-below"/><path class="ylines-below"/><g class="overlines-below"/><g class="xaxislayer-below"/><g class="yaxislayer-below"/><g class="overaxes-below"/><g class="plot" transform="translate(50,40)" clip-path="url(#clipad2c81xyplot)"><g class="scatterlayer mlayer"><g class="trace scatter trace5adb60" style="stroke-miterlimit: 2; opacity: 1;"><g class="fills"/><g class="errorbars"/><g class="lines"><path class="js-line" d="M17.35,14.25L18.78,28.32L19.25,30.5L22.58,41.2L23.06,42.4L28.29,53.22L28.76,54.05L35.9,64.99L36.37,65.64L45.88,77.19L46.36,77.71L57.3,88.72L57.77,89.16L72.99,102.14L73.47,102.51L91.06,115.41L91.54,115.73L108.18,126.54L108.66,126.83L126.25,137.2L126.73,137.47L149.55,149.72L150.03,149.97L181.42,165.17L181.89,165.38L218.51,181.36L218.98,181.56L254.65,195.75" style="vector-effect: none; fill: none; stroke: rgb(50, 50, 50); stroke-opacity: 0.4; stroke-width: 2px; opacity: 1;"/></g><g class="points"/><g class="text"/></g><g class="trace scatter trace628574" style="stroke-miterlimit: 2; opacity: 1;"><g class="fills"/><g class="errorbars"/><g class="lines"/><g class="points"><path class="point" transform="translate(17.35,14.25)" d="M3,0A3,3 0 1,1 0,-3A3,3 0 0,1 3,0Z" style="opacity: 1; stroke-width: 0px; fill: rgb(99, 110, 250); fill-opacity: 1;"/></g><g class="text"/></g><g class="trace scatter traceca0018" style="stroke-miterlimit: 2; opacity: 1;"><g class="fills"/><g class="errorbars"/><g class="lines"/><g class="points"><path class="point" transform="translate(254.65,195.75)" d="M3,0A3,3 0 1,1 0,-3A3,3 0 0,1 3,0Z" style="opacity: 1; stroke-width: 0px; fill: rgb(239, 85, 59); fill-opacity: 1;"/></g><g class="text"/></g><g class="trace scatter tracee2e210" style="stroke-miterlimit: 2; opacity: 1;"><g class="fills"/><g class="errorbars"/><g class="lines"/><g class="points"><path class="point" transform="translate(107.87,126.35)" d="M3,0A3,3 0 1,1 0,-3A3,3 0 0,1 3,0Z" style="opacity: 1; stroke-width: 0px; fill: rgb(0, 204, 150); fill-opacity: 1;"/></g><g class="text"/></g></g></g><g class="overplot"/><path class="xlines-above crisp" d="M48,251H324M48,39H324" style="fill: none; stroke-width: 2px; stroke: rgb(0, 0, 0); stroke-opacity: 1;"/><path class="ylines-above crisp" d="M49,40V250M323,40V250" style="fill: none; stroke-width: 2px; stroke: rgb(0, 0, 0); stroke-opacity: 1;"/><g class="overlines-above"/><g class="xaxislayer-above"><g class="xtick"><text text-anchor="middle" x="0" y="271.2" transform="translate(67.35,0)" style="font-family: Libertinus; font-size: 16px; fill: rgb(0, 0, 0); fill-opacity: 1; white-space: pre; opacity: 1;">0</text></g><g class="xtick"><text text-anchor="middle" x="0" y="271.2" style="font-family: Libertinus; font-size: 16px; fill: rgb(0, 0, 0); fill-opacity: 1; white-space: pre; opacity: 1;" transform="translate(186,0)">0.5</text></g><g class="xtick"><text text-anchor="middle" x="0" y="271.2" style="font-family: Libertinus; font-size: 16px; fill: rgb(0, 0, 0); fill-opacity: 1; white-space: pre; opacity: 1;" transform="translate(304.65,0)">1</text></g></g><g class="yaxislayer-above"><g class="ytick"><text text-anchor="end" x="44.8" y="5.6" transform="translate(0,235.75)" style="font-family: Libertinus; font-size: 16px; fill: rgb(0, 0, 0); fill-opacity: 1; white-space: pre; opacity: 1;">0</text></g><g class="ytick"><text text-anchor="end" x="44.8" y="5.6" style="font-family: Libertinus; font-size: 16px; fill: rgb(0, 0, 0); fill-opacity: 1; white-space: pre; opacity: 1;" transform="translate(0,199.45)">0.2</text></g><g class="ytick"><text text-anchor="end" x="44.8" y="5.6" style="font-family: Libertinus; font-size: 16px; fill: rgb(0, 0, 0); fill-opacity: 1; white-space: pre; opacity: 1;" transform="translate(0,163.15)">0.4</text></g><g class="ytick"><text text-anchor="end" x="44.8" y="5.6" style="font-family: Libertinus; font-size: 16px; fill: rgb(0, 0, 0); fill-opacity: 1; white-space: pre; opacity: 1;" transform="translate(0,126.85)">0.6</text></g><g class="ytick"><text text-anchor="end" x="44.8" y="5.6" style="font-family: Libertinus; font-size: 16px; fill: rgb(0, 0, 0); fill-opacity: 1; white-space: pre; opacity: 1;" transform="translate(0,90.55)">0.8</text></g><g class="ytick"><text text-anchor="end" x="44.8" y="5.6" style="font-family: Libertinus; font-size: 16px; fill: rgb(0, 0, 0); fill-opacity: 1; white-space: pre; opacity: 1;" transform="translate(0,54.25)">1</text></g></g><g class="overaxes-above"/></g></g><g class="polarlayer"/><g class="smithlayer"/><g class="ternarylayer"/><g class="geolayer"/><g class="funnelarealayer"/><g class="pielayer"/><g class="iciclelayer"/><g class="treemaplayer"/><g class="sunburstlayer"/><g class="glimages"/><defs id="topdefs-ad2c81"><g class="clips"/><clipPath id="legendad2c81"><rect width="61" height="102" x="0" y="0"/></clipPath></defs><g class="layer-above"><g class="imagelayer"/><g class="shapelayer"><g class="shape-group" data-index="0" clip-path="url(#clipad2c81xy)"><path data-index="0" fill-rule="evenodd" d="M67.35,235.75L159.9,164.95999999999998" style="opacity: 1; stroke: rgb(0, 204, 150); stroke-opacity: 1; fill: rgb(0, 0, 0); fill-opacity: 0; stroke-dasharray: 3px, 3px; stroke-width: 2px;"/><g data-index="0" class="shape-label"><text data-notex="1" class="shape-label-text" x="110.5873035027724" y="196.383551902551" style="font-family: Libertinus; font-size: 16px; fill: rgb(0, 0, 0); fill-opacity: 1; white-space: pre;" text-anchor="middle" transform="rotate(-37.41179017709565,110.5873035027724,196.383551902551)">vector c</text></g></g><g class="shape-group" data-index="1" clip-path="url(#clipad2c81xy)"><path data-index="1" fill-rule="evenodd" d="M67.35,235.75L304.65,235.75" style="opacity: 1; stroke: rgb(239, 85, 59); stroke-opacity: 1; fill: rgb(0, 0, 0); fill-opacity: 0; stroke-dasharray: 3px, 3px; stroke-width: 2px;"/><g data-index="1" class="shape-label"><text data-notex="1" class="shape-label-text" x="186" y="230.75" style="font-family: Libertinus; font-size: 16px; fill: rgb(0, 0, 0); fill-opacity: 1; white-space: pre;" text-anchor="middle" transform="rotate(0,186,230.75)">vector e2</text></g></g><g class="shape-group" data-index="2" clip-path="url(#clipad2c81xy)"><path data-index="2" fill-rule="evenodd" d="M67.35,235.75L67.35,54.25" style="opacity: 1; stroke: rgb(99, 110, 250); stroke-opacity: 1; fill: rgb(0, 0, 0); fill-opacity: 0; stroke-dasharray: 3px, 3px; stroke-width: 2px;"/><g data-index="2" class="shape-label"><text data-notex="1" class="shape-label-text" x="62.349999999999994" y="145" style="font-family: Libertinus; font-size: 16px; fill: rgb(0, 0, 0); fill-opacity: 1; white-space: pre;" text-anchor="middle" transform="rotate(-90,62.349999999999994,145)">vector e1</text></g></g></g></g><g class="infolayer"><g class="legend" pointer-events="all" transform="translate(327.44,40)"><rect class="bg" shape-rendering="crispEdges" width="61" height="102" x="0" y="0" style="stroke: rgb(68, 68, 68); stroke-opacity: 1; fill: rgb(255, 255, 255); fill-opacity: 1; stroke-width: 0px;"/><g class="scrollbox" transform="" clip-path="url(#legendad2c81)"><g class="groups" transform=""><g class="traces" transform="translate(0,16.9)" style="opacity: 1;"><text class="legendtext" text-anchor="start" x="40" y="6.24" style="font-family: Libertinus; font-size: 16px; fill: rgb(0, 0, 0); fill-opacity: 1; white-space: pre;">e1</text><g class="layers" style="opacity: 1;"><g class="legendfill"/><g class="legendlines"/><g class="legendsymbols"><g class="legendpoints"><path class="scatterpts" transform="translate(20,0)" d="M3,0A3,3 0 1,1 0,-3A3,3 0 0,1 3,0Z" style="opacity: 1; stroke-width: 0px; fill: rgb(99, 110, 250); fill-opacity: 1;"/></g></g></g><rect class="legendtoggle" x="0" y="-11.9" width="55.109375" height="23.8" style="fill: rgb(0, 0, 0); fill-opacity: 0;"/></g></g><g class="groups" transform="translate(0,10)"><g class="traces" transform="translate(0,40.7)" style="opacity: 1;"><text class="legendtext" text-anchor="start" x="40" y="6.24" style="font-family: Libertinus; font-size: 16px; fill: rgb(0, 0, 0); fill-opacity: 1; white-space: pre;">e2</text><g class="layers" style="opacity: 1;"><g class="legendfill"/><g class="legendlines"/><g class="legendsymbols"><g class="legendpoints"><path class="scatterpts" transform="translate(20,0)" d="M3,0A3,3 0 1,1 0,-3A3,3 0 0,1 3,0Z" style="opacity: 1; stroke-width: 0px; fill: rgb(239, 85, 59); fill-opacity: 1;"/></g></g></g><rect class="legendtoggle" x="0" y="-11.9" width="55.109375" height="23.8" style="fill: rgb(0, 0, 0); fill-opacity: 0;"/></g></g><g class="groups" transform="translate(0,20)"><g class="traces" transform="translate(0,64.5)" style="opacity: 1;"><text class="legendtext" text-anchor="start" x="40" y="6.24" style="font-family: Libertinus; font-size: 16px; fill: rgb(0, 0, 0); fill-opacity: 1; white-space: pre;">c</text><g class="layers" style="opacity: 1;"><g class="legendfill"/><g class="legendlines"/><g class="legendsymbols"><g class="legendpoints"><path class="scatterpts" transform="translate(20,0)" d="M3,0A3,3 0 1,1 0,-3A3,3 0 0,1 3,0Z" style="opacity: 1; stroke-width: 0px; fill: rgb(0, 204, 150); fill-opacity: 1;"/></g></g></g><rect class="legendtoggle" x="0" y="-11.9" width="55.109375" height="23.8" style="fill: rgb(0, 0, 0); fill-opacity: 0;"/></g></g></g><rect class="scrollbar" rx="20" ry="3" width="0" height="0" x="0" y="0" style="fill: rgb(128, 139, 164); fill-opacity: 1;"/></g><g class="g-gtitle"><text class="gtitle" x="200" y="20" text-anchor="middle" dy="0em" style="font-family: Libertinus; font-size: 20px; fill: rgb(0, 0, 0); opacity: 1; font-weight: normal; white-space: pre;">UF1</text></g><g class="g-xtitle" transform="translate(0,-2.203125)"><text class="xtitle" x="186" y="297.703125" text-anchor="middle" style="font-family: Libertinus; font-size: 20px; fill: rgb(0, 0, 0); opacity: 1; font-weight: normal; white-space: pre;">f1</text></g><g class="g-ytitle" transform="translate(19,0)"><text class="ytitle" transform="rotate(-90,-1,145)" x="-1" y="145" text-anchor="middle" style="font-family: Libertinus; font-size: 20px; fill: rgb(0, 0, 0); opacity: 1; font-weight: normal; white-space: pre;">f2</text></g></g></svg>